<svg xmlns="http://www.w3.org/2000/svg" width="977" height="837" viewBox="0 0 977 837" font-family="ui-monospace, SFMono-Regular, Menlo, Consolas, 'DejaVu Sans Mono', monospace" font-size="14">
<rect width="977" height="837" rx="10" fill="#1c1e22" stroke="#2c2f36"/>
<rect x="1" y="30" width="975" height="806" fill="#141619"/>
<circle cx="20" cy="15" r="5.5" fill="#ff5f57"/><circle cx="37" cy="15" r="5.5" fill="#febc2e"/><circle cx="54" cy="15" r="5.5" fill="#28c840"/>
<text x="488.5" y="19" fill="#8b8f98" font-size="12" text-anchor="middle">grove — a add, and .grove.toml fills the worktree in</text>

<path fill="#98c379" opacity="1" d="M156.60 148.50h4.20v9.50h-4.20zM160.80 148.50h8.40v9.50h-8.40zM169.20 148.50h4.20v9.50h-4.20zM190.20 148.50h4.20v9.50h-4.20zM194.40 148.50h8.40v9.50h-8.40zM202.80 148.50h4.20v9.50h-4.20zM156.60 158.00h4.20v9.50h-4.20zM160.80 158.00h4.20v9.50h-4.20zM165.00 158.00h4.20v9.50h-4.20zM165.00 167.50h4.20v9.50h-4.20zM169.20 158.00h8.40v19.00h-8.40zM177.60 167.50h8.40v9.50h-8.40zM186.00 158.00h8.40v19.00h-8.40zM194.40 158.00h4.20v9.50h-4.20zM198.60 158.00h4.20v9.50h-4.20zM194.40 167.50h4.20v9.50h-4.20zM202.80 158.00h4.20v9.50h-4.20zM181.80 177.00h4.20v19.00h-4.20zM186.00 177.00h4.20v19.00h-4.20z"/>
<path fill="none" stroke="#5c6370" stroke-width="1.3" opacity="1" d="M22.20 82.00V75.50Q22.20 72.50 25.20 72.50H26.40M26.40 72.50H34.80M152.40 72.50H950.40M954.60 82.00V75.50Q954.60 72.50 951.60 72.50H950.40M22.20 82.00V101.00M954.60 82.00V101.00M22.20 101.00V120.00M333.00 101.00V120.00M954.60 101.00V120.00M22.20 120.00V139.00M333.00 120.00V139.00M954.60 120.00V139.00M22.20 139.00V158.00M333.00 139.00V158.00M354.00 148.50H942.00M954.60 139.00V158.00M22.20 158.00V177.00M333.00 158.00V177.00M954.60 158.00V177.00M22.20 177.00V196.00M333.00 177.00V196.00M954.60 177.00V196.00M22.20 196.00V215.00M333.00 196.00V215.00M954.60 196.00V215.00M22.20 215.00V234.00M333.00 215.00V234.00M954.60 215.00V234.00M22.20 234.00V253.00M333.00 234.00V253.00M954.60 234.00V253.00M22.20 253.00V259.50Q22.20 262.50 25.20 262.50H26.40M26.40 262.50H950.40M954.60 253.00V259.50Q954.60 262.50 951.60 262.50H950.40"/>
<path fill="none" stroke="#e4e6ea" stroke-width="1.3" opacity="0.6" d="M18.00 319.50H958.80M18.00 566.50H34.80M177.60 566.50H958.80M18.00 680.50H958.80M18.00 794.50H958.80"/>
<text x="43.2" y="77.0" fill="#56b6c2" font-weight="600" textLength="42.0" lengthAdjust="spacingAndGlyphs" xml:space="preserve">grove</text>
<text x="85.2" y="77.0" fill="#5c6370" textLength="67.2" lengthAdjust="spacingAndGlyphs" xml:space="preserve"> v0.4.4 </text>
<text x="118.8" y="115.0" fill="#e4e6ea" font-weight="600" textLength="109.2" lengthAdjust="spacingAndGlyphs" xml:space="preserve">Welcome back!</text>
<text x="354.0" y="115.0" fill="#56b6c2" font-weight="600" textLength="201.6" lengthAdjust="spacingAndGlyphs" xml:space="preserve">Tips for getting started</text>
<text x="337.2" y="134.0" fill="#e4e6ea" textLength="613.2" lengthAdjust="spacingAndGlyphs" xml:space="preserve">  press a to add, s to sync, r to remove                                 </text>
<text x="354.0" y="172.0" fill="#56b6c2" font-weight="600" textLength="84.0" lengthAdjust="spacingAndGlyphs" xml:space="preserve">What's new</text>
<text x="337.2" y="191.0" fill="#e4e6ea" textLength="613.2" lengthAdjust="spacingAndGlyphs" xml:space="preserve">  · Nothing a user of grove can observe changed in this release. Everyt… </text>
<text x="354.0" y="210.0" fill="#e4e6ea" opacity="0.6" textLength="176.4" lengthAdjust="spacingAndGlyphs" xml:space="preserve">CHANGELOG.md for more</text>
<text x="127.2" y="229.0" fill="#e4e6ea" opacity="0.6" textLength="92.4" lengthAdjust="spacingAndGlyphs" xml:space="preserve">~/work/acme</text>
<text x="85.2" y="248.0" fill="#e4e6ea" opacity="0.6" textLength="176.4" lengthAdjust="spacingAndGlyphs" xml:space="preserve">6 worktrees · in main</text>
<text x="18.0" y="305.0" fill="#e4e6ea" opacity="0.6" textLength="378.0" lengthAdjust="spacingAndGlyphs" xml:space="preserve">    worktree    origin         main     state</text>
<text x="18.0" y="343.0" fill="#56b6c2" textLength="134.4" lengthAdjust="spacingAndGlyphs" xml:space="preserve">▸ * main        </text>
<text x="152.4" y="343.0" fill="#56b6c2" opacity="0.6" textLength="16.8" lengthAdjust="spacingAndGlyphs" xml:space="preserve">↑0</text>
<text x="177.6" y="343.0" fill="#56b6c2" opacity="0.6" textLength="16.8" lengthAdjust="spacingAndGlyphs" xml:space="preserve">↓0</text>
<text x="354.0" y="343.0" fill="#56b6c2" opacity="0.6" textLength="8.4" lengthAdjust="spacingAndGlyphs" xml:space="preserve">○</text>
<text x="362.4" y="343.0" fill="#56b6c2" textLength="117.6" lengthAdjust="spacingAndGlyphs" xml:space="preserve">        1d ago</text>
<text x="18.0" y="362.0" fill="#e4e6ea" opacity="0.6" textLength="84.0" lengthAdjust="spacingAndGlyphs" xml:space="preserve">    chore/</text>
<text x="18.0" y="381.0" fill="#e4e6ea" textLength="134.4" lengthAdjust="spacingAndGlyphs" xml:space="preserve">      docs      </text>
<text x="152.4" y="381.0" fill="#e4e6ea" opacity="0.6" textLength="16.8" lengthAdjust="spacingAndGlyphs" xml:space="preserve">↑0</text>
<text x="177.6" y="381.0" fill="#e4e6ea" opacity="0.6" textLength="16.8" lengthAdjust="spacingAndGlyphs" xml:space="preserve">↓0</text>
<text x="278.4" y="381.0" fill="#98c379" textLength="16.8" lengthAdjust="spacingAndGlyphs" xml:space="preserve">↑1</text>
<text x="303.6" y="381.0" fill="#e5c07b" textLength="16.8" lengthAdjust="spacingAndGlyphs" xml:space="preserve">↓2</text>
<text x="354.0" y="381.0" fill="#e4e6ea" opacity="0.6" textLength="8.4" lengthAdjust="spacingAndGlyphs" xml:space="preserve">○</text>
<text x="429.6" y="381.0" fill="#e4e6ea" opacity="0.6" textLength="50.4" lengthAdjust="spacingAndGlyphs" xml:space="preserve">4d ago</text>
<text x="18.0" y="400.0" fill="#e4e6ea" opacity="0.6" textLength="75.6" lengthAdjust="spacingAndGlyphs" xml:space="preserve">    feat/</text>
<text x="18.0" y="419.0" fill="#e4e6ea" textLength="134.4" lengthAdjust="spacingAndGlyphs" xml:space="preserve">      login     </text>
<text x="152.4" y="419.0" fill="#98c379" textLength="16.8" lengthAdjust="spacingAndGlyphs" xml:space="preserve">↑2</text>
<text x="177.6" y="419.0" fill="#e4e6ea" opacity="0.6" textLength="16.8" lengthAdjust="spacingAndGlyphs" xml:space="preserve">↓0</text>
<text x="278.4" y="419.0" fill="#98c379" textLength="16.8" lengthAdjust="spacingAndGlyphs" xml:space="preserve">↑3</text>
<text x="303.6" y="419.0" fill="#e5c07b" textLength="16.8" lengthAdjust="spacingAndGlyphs" xml:space="preserve">↓2</text>
<text x="354.0" y="419.0" fill="#e4e6ea" opacity="0.6" textLength="8.4" lengthAdjust="spacingAndGlyphs" xml:space="preserve">○</text>
<text x="429.6" y="419.0" fill="#e4e6ea" opacity="0.6" textLength="50.4" lengthAdjust="spacingAndGlyphs" xml:space="preserve">2h ago</text>
<text x="18.0" y="438.0" fill="#e4e6ea" textLength="134.4" lengthAdjust="spacingAndGlyphs" xml:space="preserve">      paging    </text>
<text x="152.4" y="438.0" fill="#e4e6ea" opacity="0.6" textLength="92.4" lengthAdjust="spacingAndGlyphs" xml:space="preserve">no upstream</text>
<text x="278.4" y="438.0" fill="#e4e6ea" opacity="0.6" textLength="16.8" lengthAdjust="spacingAndGlyphs" xml:space="preserve">↑0</text>
<text x="303.6" y="438.0" fill="#e4e6ea" opacity="0.6" textLength="16.8" lengthAdjust="spacingAndGlyphs" xml:space="preserve">↓0</text>
<text x="354.0" y="438.0" fill="#e4e6ea" opacity="0.6" textLength="8.4" lengthAdjust="spacingAndGlyphs" xml:space="preserve">○</text>
<text x="429.6" y="438.0" fill="#e4e6ea" opacity="0.6" textLength="50.4" lengthAdjust="spacingAndGlyphs" xml:space="preserve">1d ago</text>
<text x="18.0" y="457.0" fill="#e4e6ea" textLength="134.4" lengthAdjust="spacingAndGlyphs" xml:space="preserve">      search    </text>
<text x="152.4" y="457.0" fill="#e4e6ea" opacity="0.6" textLength="16.8" lengthAdjust="spacingAndGlyphs" xml:space="preserve">↑0</text>
<text x="177.6" y="457.0" fill="#e4e6ea" opacity="0.6" textLength="16.8" lengthAdjust="spacingAndGlyphs" xml:space="preserve">↓0</text>
<text x="278.4" y="457.0" fill="#98c379" textLength="16.8" lengthAdjust="spacingAndGlyphs" xml:space="preserve">↑1</text>
<text x="303.6" y="457.0" fill="#e5c07b" textLength="16.8" lengthAdjust="spacingAndGlyphs" xml:space="preserve">↓2</text>
<text x="354.0" y="457.0" fill="#e5c07b" textLength="8.4" lengthAdjust="spacingAndGlyphs" xml:space="preserve">●</text>
<text x="429.6" y="457.0" fill="#e4e6ea" opacity="0.6" textLength="50.4" lengthAdjust="spacingAndGlyphs" xml:space="preserve">now   </text>
<text x="18.0" y="476.0" fill="#e4e6ea" opacity="0.6" textLength="67.2" lengthAdjust="spacingAndGlyphs" xml:space="preserve">    fix/</text>
<text x="18.0" y="495.0" fill="#e4e6ea" textLength="134.4" lengthAdjust="spacingAndGlyphs" xml:space="preserve">      crash     </text>
<text x="152.4" y="495.0" fill="#e4e6ea" opacity="0.6" textLength="16.8" lengthAdjust="spacingAndGlyphs" xml:space="preserve">↑0</text>
<text x="177.6" y="495.0" fill="#e4e6ea" opacity="0.6" textLength="16.8" lengthAdjust="spacingAndGlyphs" xml:space="preserve">↓0</text>
<text x="278.4" y="495.0" fill="#98c379" textLength="16.8" lengthAdjust="spacingAndGlyphs" xml:space="preserve">↑1</text>
<text x="303.6" y="495.0" fill="#e5c07b" textLength="16.8" lengthAdjust="spacingAndGlyphs" xml:space="preserve">↓2</text>
<text x="354.0" y="495.0" fill="#e4e6ea" opacity="0.6" textLength="8.4" lengthAdjust="spacingAndGlyphs" xml:space="preserve">○</text>
<text x="429.6" y="495.0" fill="#e4e6ea" opacity="0.6" textLength="50.4" lengthAdjust="spacingAndGlyphs" xml:space="preserve">2d ago</text>
<text x="34.8" y="571.0" fill="#e4e6ea" opacity="0.6" textLength="142.8" lengthAdjust="spacingAndGlyphs" xml:space="preserve"> commits in main </text>
<text x="34.8" y="590.0" fill="#e5c07b" textLength="58.8" lengthAdjust="spacingAndGlyphs" xml:space="preserve">79654ca</text>
<text x="110.4" y="590.0" fill="#e4e6ea" opacity="0.6" textLength="134.4" lengthAdjust="spacingAndGlyphs" xml:space="preserve">1d ago          </text>
<text x="261.6" y="590.0" fill="#56b6c2" textLength="453.6" lengthAdjust="spacingAndGlyphs" xml:space="preserve">(HEAD -&gt; main, origin/main, origin/HEAD, feat/paging) </text>
<text x="715.2" y="590.0" fill="#e4e6ea" textLength="142.8" lengthAdjust="spacingAndGlyphs" xml:space="preserve">Start a changelog</text>
<text x="34.8" y="609.0" fill="#e5c07b" textLength="58.8" lengthAdjust="spacingAndGlyphs" xml:space="preserve">c99f82f</text>
<text x="110.4" y="609.0" fill="#e4e6ea" opacity="0.6" textLength="134.4" lengthAdjust="spacingAndGlyphs" xml:space="preserve">1d ago          </text>
<text x="244.8" y="609.0" fill="#e4e6ea" textLength="210.0" lengthAdjust="spacingAndGlyphs" xml:space="preserve">  Tighten the entry point</text>
<text x="34.8" y="628.0" fill="#e5c07b" textLength="58.8" lengthAdjust="spacingAndGlyphs" xml:space="preserve">e2d44d2</text>
<text x="110.4" y="628.0" fill="#e4e6ea" opacity="0.6" textLength="134.4" lengthAdjust="spacingAndGlyphs" xml:space="preserve">2026-08-08 13:00</text>
<text x="244.8" y="628.0" fill="#e4e6ea" textLength="243.6" lengthAdjust="spacingAndGlyphs" xml:space="preserve">  Set worktrees up on arrival</text>
<text x="34.8" y="647.0" fill="#e5c07b" textLength="58.8" lengthAdjust="spacingAndGlyphs" xml:space="preserve">3c03a3d</text>
<text x="110.4" y="647.0" fill="#e4e6ea" opacity="0.6" textLength="134.4" lengthAdjust="spacingAndGlyphs" xml:space="preserve">2026-08-08 03:00</text>
<text x="244.8" y="647.0" fill="#e4e6ea" textLength="176.4" lengthAdjust="spacingAndGlyphs" xml:space="preserve">  Add the entry point</text>
<text x="34.8" y="666.0" fill="#e5c07b" textLength="58.8" lengthAdjust="spacingAndGlyphs" xml:space="preserve">d7a9e97</text>
<text x="110.4" y="666.0" fill="#e4e6ea" opacity="0.6" textLength="134.4" lengthAdjust="spacingAndGlyphs" xml:space="preserve">2026-08-07 17:00</text>
<text x="244.8" y="666.0" fill="#e4e6ea" textLength="117.6" lengthAdjust="spacingAndGlyphs" xml:space="preserve">  Add a readme</text>
<text x="18.0" y="704.0" fill="#98c379" textLength="8.4" lengthAdjust="spacingAndGlyphs" xml:space="preserve">✓</text>
<text x="26.4" y="704.0" fill="#e4e6ea" textLength="84.0" lengthAdjust="spacingAndGlyphs" xml:space="preserve"> took .env</text>
<text x="18.0" y="723.0" fill="#e4e6ea" opacity="0.6" textLength="361.2" lengthAdjust="spacingAndGlyphs" xml:space="preserve">· already in feat/paging, overwritten: .env</text>
<text x="18.0" y="742.0" fill="#e4e6ea" opacity="0.6" textLength="420.0" lengthAdjust="spacingAndGlyphs" xml:space="preserve">· already in feat/paging, left alone: node_modules</text>
<text x="18.0" y="761.0" fill="#98c379" textLength="8.4" lengthAdjust="spacingAndGlyphs" xml:space="preserve">✓</text>
<text x="26.4" y="761.0" fill="#e4e6ea" textLength="134.4" lengthAdjust="spacingAndGlyphs" xml:space="preserve"> ran bun install</text>
<text x="18.0" y="780.0" fill="#56b6c2" textLength="445.2" lengthAdjust="spacingAndGlyphs" xml:space="preserve">1 copied, 1 overwritten, 1 run, 1 kept in feat/paging</text>
<text x="18.0" y="818.0" fill="#56b6c2" font-weight="600" textLength="16.8" lengthAdjust="spacingAndGlyphs" xml:space="preserve">↑↓</text>
<text x="34.8" y="818.0" fill="#e4e6ea" opacity="0.6" textLength="67.2" lengthAdjust="spacingAndGlyphs" xml:space="preserve"> move · </text>
<text x="102.0" y="818.0" fill="#56b6c2" font-weight="600" textLength="42.0" lengthAdjust="spacingAndGlyphs" xml:space="preserve">enter</text>
<text x="144.0" y="818.0" fill="#e4e6ea" opacity="0.6" textLength="109.2" lengthAdjust="spacingAndGlyphs" xml:space="preserve"> copy path · </text>
<text x="253.2" y="818.0" fill="#56b6c2" font-weight="600" textLength="8.4" lengthAdjust="spacingAndGlyphs" xml:space="preserve">a</text>
<text x="261.6" y="818.0" fill="#e4e6ea" opacity="0.6" textLength="58.8" lengthAdjust="spacingAndGlyphs" xml:space="preserve"> add · </text>
<text x="320.4" y="818.0" fill="#56b6c2" font-weight="600" textLength="8.4" lengthAdjust="spacingAndGlyphs" xml:space="preserve">r</text>
<text x="328.8" y="818.0" fill="#e4e6ea" opacity="0.6" textLength="84.0" lengthAdjust="spacingAndGlyphs" xml:space="preserve"> remove · </text>
<text x="412.8" y="818.0" fill="#56b6c2" font-weight="600" textLength="8.4" lengthAdjust="spacingAndGlyphs" xml:space="preserve">s</text>
<text x="421.2" y="818.0" fill="#e4e6ea" opacity="0.6" textLength="67.2" lengthAdjust="spacingAndGlyphs" xml:space="preserve"> sync · </text>
<text x="488.4" y="818.0" fill="#56b6c2" font-weight="600" textLength="8.4" lengthAdjust="spacingAndGlyphs" xml:space="preserve">/</text>
<text x="496.8" y="818.0" fill="#e4e6ea" opacity="0.6" textLength="67.2" lengthAdjust="spacingAndGlyphs" xml:space="preserve"> more · </text>
<text x="564.0" y="818.0" fill="#56b6c2" font-weight="600" textLength="8.4" lengthAdjust="spacingAndGlyphs" xml:space="preserve">q</text>
<text x="572.4" y="818.0" fill="#e4e6ea" opacity="0.6" textLength="42.0" lengthAdjust="spacingAndGlyphs" xml:space="preserve"> quit</text>
</svg>
